#!OML:ASF F:\VICON\USERDATA\INSTALL\rory3\rory3.ASF
:FULLY-SPECIFIED
:DEGREES
1926
root -0.239941 17.312 -3.40363 1.45835 -0.906711 -0.24205
lowerback 21.8455 -1.19693 -2.81298
upperback 3.49587 -2.24862 -0.373941
thorax -8.27948 -1.00019 1.83559
lowerneck -12.1209 -4.76904 -8.15179
upperneck -3.26833 -5.44104 11.2164
head 1.54284 -2.41579 4.4472
rclavicle 1.5704e-014 8.34896e-015
rhumerus -34.7988 13.1966 -73.7794
rradius 91.2453
rwrist 15.0597
rhand -46.6826 0.366894
rfingers 7.12502
rthumb -19.4022 -28.6851
lclavicle 1.5704e-014 8.34896e-015
lhumerus -38.6648 -2.75577 69.9663
lradius 91.5999
lwrist 15.9035
lhand -42.5091 12.0553
lfingers 7.12502
lthumb -15.3856 41.4629
rfemur -27.9451 -0.866635 8.44685
rtibia 54.3993
rfoot -22.1864 -23.8777
rtoes -5.8403
lfemur -27.9881 11.3579 -16.7254
ltibia 57.0987
lfoot -26.7137 13.0889
ltoes -8.15931
1927
root -0.208529 17.3292 -3.38511 1.30712 -1.05276 -0.105825
lowerback 21.725 -1.16463 -3.00333
upperback 3.50409 -2.24797 -0.388906
thorax -8.19936 -0.996895 1.92354
lowerneck -11.9202 -4.79487 -8.14661
upperneck -3.35086 -5.48326 11.185
head 1.48966 -2.44461 4.43798
rclavicle 1.78906e-014 -1.59028e-014
rhumerus -34.9945 13.6331 -74.2726
rradius 90.8961
rwrist 14.8358
rhand -46.7137 0.595575
rfingers 7.12502
rthumb -19.432 -28.4534
lclavicle 1.78906e-014 -1.59028e-014
lhumerus -38.8754 -3.09779 70.7918
lradius 91.6984
lwrist 15.9924
lhand -42.6317 11.9552
lfingers 7.12502
lthumb -15.5037 41.3536
rfemur -27.8181 -0.559042 8.1596
rtibia 54.4335
rfoot -22.9493 -23.6428
rtoes -6.04724
lfemur -27.5732 11.5505 -16.958
ltibia 56.8625
lfoot -26.7553 13.0837
ltoes -8.17672
1928
root -0.176943 17.3285 -3.36812 1.11768 -1.17941 -0.0252948
lowerback 21.7115 -1.15394 -3.09502
upperback 3.51523 -2.25831 -0.427276
thorax -8.17736 -1.00058 1.9362
lowerneck -11.9143 -4.7951 -8.18377
upperneck -3.27502 -5.48581 11.2504
head 1.51516 -2.44333 4.46324
rclavicle -2.18663e-015 2.06736e-014
rhumerus -35.1908 14.0137 -74.8001
rradius 90.521
rwrist 14.6799
rhand -46.7755 1.63249
rfingers 7.12502
rthumb -19.4914 -27.4105
lclavicle -2.18663e-015 2.06736e-014
lhumerus -39.0697 -3.44737 71.6138
lradius 91.806
lwrist 15.923
lhand -43.0078 12.0808
lfingers 7.12502
lthumb -15.8659 41.4508
rfemur -27.6716 -0.447517 8.01565
rtibia 54.5002
rfoot -22.7358 -23.9116
rtoes -7.82746
lfemur -27.2082 11.7856 -17.1048
ltibia 56.7092
lfoot -26.7683 13.0376
ltoes -8.48095
1929
root -0.145697 17.3277 -3.35323 0.936465 -1.31715 0.115515
lowerback 21.7026 -1.12714 -3.23419
upperback 3.51695 -2.26054 -0.483548
thorax -8.1675 -0.998941 1.95447
lowerneck -11.9976 -4.79398 -8.24167
upperneck -3.09616 -5.48486 11.2968
head 1.58448 -2.4364 4.48377
rclavicle 1.17283e-014 -2.38542e-015
rhumerus -35.4318 14.3843 -75.3437
rradius 90.2031
rwrist 14.6594
rhand -47.2076 2.03317
rfingers 7.12502
rthumb -19.9068 -26.9673
lclavicle 1.17283e-014 -2.38542e-015
lhumerus -39.1717 -3.86461 72.4568
lradius 91.7739
lwrist 15.7666
lhand -43.3988 12.1772
lfingers 7.12502
lthumb -16.2424 41.5169
rfemur -27.5624 -0.327938 7.76988
rtibia 54.6089
rfoot -22.7474 -23.9941
rtoes -8.12407
lfemur -26.8827 12.0478 -17.3125
ltibia 56.5981
lfoot -26.8068 12.9807
ltoes -8.63841
1930
root -0.116125 17.3267 -3.33983 0.749047 -1.43767 0.134149
lowerback 21.6699 -1.11242 -3.27127
upperback 3.52124 -2.24904 -0.484752
thorax -8.14457 -0.99325 1.97
lowerneck -11.963 -4.79293 -8.23501
upperneck -2.99628 -5.49193 11.2179
head 1.60585 -2.4413 4.45736
rclavicle -6.36111e-015 1.39149e-014
rhumerus -35.6266 14.684 -75.8658
rradius 89.8273
rwrist 14.7041
rhand -47.4684 2.12401
rfingers 7.12502
rthumb -20.1576 -26.8502
lclavicle -6.36111e-015 1.39149e-014
lhumerus -39.1526 -4.24267 73.3058
lradius 91.6269
lwrist 15.7589
lhand -43.1216 11.9501
lfingers 7.12502
lthumb -15.9755 41.3113
rfemur -27.4657 -0.145327 7.638
rtibia 54.7459
rfoot -22.5899 -24.1249
rtoes -7.91293
lfemur -26.5781 12.3325 -17.3679
ltibia 56.5448
lfoot -26.7702 12.84
ltoes -8.1144
1931
root -0.0858408 17.3159 -3.32407 0.581305 -1.52593 0.370846
lowerback 21.5607 -1.10367 -3.50147
upperback 3.5325 -2.29197 -0.55171
thorax -8.06532 -1.01058 2.03626
lowerneck -11.727 -4.80012 -8.16568
upperneck -3.05192 -5.52026 11.1163
head 1.54915 -2.46583 4.41724
rclavicle 8.94531e-015 1.66979e-014
rhumerus -35.7184 15.0042 -76.3725
rradius 89.3328
rwrist 14.765
rhand -47.6127 2.30051
rfingers 7.12502
rthumb -20.2962 -26.659
lclavicle 8.94531e-015 1.66979e-014
lhumerus -38.9897 -4.5546 74.0996
lradius 91.3629
lwrist 15.73
lhand -42.6127 11.6207
lfingers 7.12502
lthumb -15.4854 41.0205
rfemur -27.3996 -0.207921 7.33296
rtibia 54.9314
rfoot -21.9084 -24.5394
rtoes -9.06867
lfemur -26.3176 12.6217 -17.6849
ltibia 56.5186
lfoot -26.7632 12.7473
ltoes -7.53325
